# Blender v3.0.1 OBJ File: 'spaceship_v1.blend'
# www.blender.org
mtllib spaceship_model.mtl
o Cube.001_Cube.005
v -3.679993 -4.398273 -6.191177
v -3.679993 4.398273 -6.191177
v -3.679993 -4.398273 6.191177
v -3.679993 4.398273 6.191177
v 3.679993 -4.398273 -6.191177
v 3.679993 4.398273 -6.191177
v 3.679993 -4.398273 6.191177
v 3.679993 4.398273 6.191177
v -2.629122 -3.142287 4.423204
vt 0.375000 0.000000
vt 0.625000 0.000000
vt 0.625000 0.250000
vt 0.375000 0.250000
vt 0.625000 0.500000
vt 0.375000 0.500000
vt 0.625000 0.750000
vt 0.375000 0.750000
vt 0.625000 1.000000
vt 0.375000 1.000000
vt 0.125000 0.500000
vt 0.125000 0.750000
vt 0.875000 0.500000
vt 0.875000 0.750000
vn 1.0000 0.0000 0.0000
vn 0.0000 0.0000 -1.0000
vn -1.0000 0.0000 0.0000
vn 0.0000 0.0000 1.0000
vn 0.0000 1.0000 0.0000
vn 0.0000 -1.0000 0.0000
usemtl None
s off
f 1/1/1 2/2/1 4/3/1 3/4/1
f 3/4/2 4/3/2 8/5/2 7/6/2
f 7/6/3 8/5/3 6/7/3 5/8/3
f 5/8/4 6/7/4 2/9/4 1/10/4
f 3/11/5 7/6/5 5/8/5 1/12/5
f 8/5/6 4/13/6 2/14/6 6/7/6
l 3 9
o Cube.006_Cube.010
v -39.215874 -20.742172 -6.191177
v -39.215874 -11.945628 -6.191177
v -39.215874 -20.742172 6.191177
v -39.215874 -11.945628 6.191177
v -31.855888 -20.742172 -6.191177
v -31.855888 -11.945628 -6.191177
v -31.855888 -20.742172 6.191177
v -31.855888 -11.945628 6.191177
vt 0.375000 0.000000
vt 0.625000 0.000000
vt 0.625000 0.250000
vt 0.375000 0.250000
vt 0.625000 0.500000
vt 0.375000 0.500000
vt 0.625000 0.750000
vt 0.375000 0.750000
vt 0.625000 1.000000
vt 0.375000 1.000000
vt 0.125000 0.500000
vt 0.125000 0.750000
vt 0.875000 0.500000
vt 0.875000 0.750000
vn 1.0000 0.0000 0.0000
vn 0.0000 0.0000 -1.0000
vn -1.0000 0.0000 0.0000
vn 0.0000 0.0000 1.0000
vn 0.0000 1.0000 0.0000
vn 0.0000 -1.0000 0.0000
usemtl None
s off
f 10/15/7 11/16/7 13/17/7 12/18/7
f 12/18/8 13/17/8 17/19/8 16/20/8
f 16/20/9 17/19/9 15/21/9 14/22/9
f 14/22/10 15/21/10 11/23/10 10/24/10
f 12/25/11 16/20/11 14/22/11 10/26/11
f 17/19/12 13/27/12 11/28/12 15/21/12
o Cube.007_Cube.011
v -103.504013 -51.771839 -10.603828
v -103.504013 -36.705715 -10.603828
v -103.504013 -51.771839 10.603828
v -103.504013 -36.705715 10.603828
v -90.898331 -51.771839 -10.603828
v -90.898331 -36.705715 -10.603828
v -90.898331 -51.771839 10.603828
v -90.898331 -36.705715 10.603828
vt 0.375000 0.000000
vt 0.625000 0.000000
vt 0.625000 0.250000
vt 0.375000 0.250000
vt 0.625000 0.500000
vt 0.375000 0.500000
vt 0.625000 0.750000
vt 0.375000 0.750000
vt 0.625000 1.000000
vt 0.375000 1.000000
vt 0.125000 0.500000
vt 0.125000 0.750000
vt 0.875000 0.500000
vt 0.875000 0.750000
vn 1.0000 0.0000 0.0000
vn 0.0000 0.0000 -1.0000
vn -1.0000 0.0000 0.0000
vn 0.0000 0.0000 1.0000
vn 0.0000 1.0000 0.0000
vn 0.0000 -1.0000 0.0000
usemtl None
s off
f 18/29/13 19/30/13 21/31/13 20/32/13
f 20/32/14 21/31/14 25/33/14 24/34/14
f 24/34/15 25/33/15 23/35/15 22/36/15
f 22/36/16 23/35/16 19/37/16 18/38/16
f 20/39/17 24/34/17 22/36/17 18/40/17
f 25/33/18 21/41/18 19/42/18 23/35/18
